<?xml version="1.0" encoding="UTF-8" standalone="no"?>
<!-- Created with Inkscape (http://www.inkscape.org/) -->

<svg
   width="144"
   height="65.5"
   viewBox="0 0 38.100024 17.330219"
   version="1.1"
   id="svg1"
   sodipodi:docname="nudgeport.png"
   inkscape:version="1.4.2 (2aeb623e1d, 2025-05-12)"
   xmlns:inkscape="http://www.inkscape.org/namespaces/inkscape"
   xmlns:sodipodi="http://sodipodi.sourceforge.net/DTD/sodipodi-0.dtd"
   xmlns="http://www.w3.org/2000/svg"
   xmlns:svg="http://www.w3.org/2000/svg">
  <sodipodi:namedview
     id="namedview1"
     pagecolor="#efefef"
     bordercolor="#000000"
     borderopacity="0.25"
     inkscape:showpageshadow="2"
     inkscape:pageopacity="0.0"
     inkscape:pagecheckerboard="0"
     inkscape:deskcolor="#d1d1d1"
     inkscape:document-units="mm"
     inkscape:zoom="2.8614197"
     inkscape:cx="78.10808"
     inkscape:cy="40.364578"
     inkscape:window-width="1536"
     inkscape:window-height="795"
     inkscape:window-x="0"
     inkscape:window-y="0"
     inkscape:window-maximized="1"
     inkscape:current-layer="layer1"
     showgrid="false" />
  <defs
     id="defs1" />
  <g
     inkscape:label="Layer 1"
     inkscape:groupmode="layer"
     id="layer1">
    <path
       style="fill:#efefef;fill-opacity:1;stroke:#275c88;stroke-width:0.0118145;stroke-linecap:butt;stroke-dasharray:none;stroke-dashoffset:0;stroke-opacity:1;paint-order:normal"
       d="M 0.26889022,8.7056176 V -0.13233256 H 19.124493 37.980098 V 8.7056176 17.54357 H 19.124493 0.26889022 Z"
       id="path114" />
    <text
       xml:space="preserve"
       style="font-style:normal;font-variant:normal;font-weight:normal;font-stretch:normal;font-size:0.989077px;font-family:'George Rounded';-inkscape-font-specification:'George Rounded';text-align:start;writing-mode:lr-tb;direction:ltr;text-anchor:start;fill:#275c88;fill-opacity:1;stroke:#275c88;stroke-width:0.025488;stroke-linecap:butt;stroke-dasharray:none;stroke-dashoffset:0;stroke-opacity:1;paint-order:normal"
       x="25.331182"
       y="37.205345"
       id="text10"><tspan
         sodipodi:role="line"
         id="tspan10"
         style="font-size:0.989077px;stroke-width:0.025488;stroke-dasharray:none"
         x="25.331182"
         y="37.205345" /></text>
    <g
       id="g2"
       transform="matrix(0.8911054,0,0,0.8911054,-9.5412173,-22.790556)">
      <path
         id="rect10"
         style="fill-opacity:0;stroke:#275c88;stroke-width:0.25488"
         inkscape:label="rect10"
         d="M 11.128051,25.898798 H 52.19966 v 17.96476 H 11.128051 Z" />
      <path
         id="rect114"
         style="fill:#275c88;stroke-width:0.0227706"
         d="m 52.309345,27.313364 h 1.024597 v 17.141373 h -1.024597 z" />
      <path
         id="rect114-2"
         style="fill:#275c88;stroke-width:0.0348036"
         transform="rotate(90)"
         d="m 43.973877,-53.328815 h 1.011116 v 40.578975 h -1.011116 z" />
    </g>
    <path
       d="m 5.2971175,8.4649471 c 0,-0.8105 0.704784,-1.456553 1.527032,-1.339088 0.681291,0.08223 1.186385,0.693038 1.186385,1.386075 V 11.40155 c 0,0.140961 0.105729,0.246674 0.234928,0.246674 h 0.446363 c 0.129202,0 0.234928,-0.10573 0.234928,-0.246674 V 8.5471741 c 0,-1.221625 -0.927965,-2.278803 -2.137845,-2.34928 -0.563825,-0.03523 -1.080668,0.140959 -1.491791,0.446364 v -0.03523 c 0,-0.270168 -0.223181,-0.493349 -0.505096,-0.493349 h -0.176196 c -0.129202,0 -0.234928,0.10573 -0.234928,0.234929 v 5.0509529 c 0,0.129203 0.105717,0.234927 0.234928,0.234927 h 0.446362 c 0.129202,0 0.234929,-0.105729 0.234929,-0.234927 V 8.4649581 Z m 6.7424255,3.0775579 c 0.516844,0.07046 0.998445,-0.03523 1.397824,-0.246674 0.129201,-0.07046 0.293659,-0.270167 0.293659,0.152701 0,0.105729 0.08223,0.187944 0.187943,0.187944 h 0.540333 c 0.105729,0 0.187944,-0.08223 0.187944,-0.187944 V 6.3858351 c 0,-0.117457 -0.10573,-0.223181 -0.223183,-0.223181 h -0.469855 c -0.129203,0 -0.223182,0.105718 -0.223182,0.223181 v 2.854375 c 0,0.693039 -0.493348,1.3038499 -1.186386,1.3978219 -0.82225,0.105718 -1.527034,-0.540336 -1.527034,-1.3508359 v -2.948346 c 0,-0.129202 -0.10573,-0.223182 -0.223181,-0.223182 h -0.481603 c -0.117457,0 -0.211433,0.09397 -0.211433,0.223182 v 2.877868 c 0,1.1394009 0.810502,2.1613379 1.938154,2.3257869 z m 6.072878,-0.03523 c 0.716532,0.03523 1.374329,-0.223181 1.867678,-0.657799 v 0.140962 c 0,0.352394 0.29366,0.646054 0.657798,0.646054 0.140961,0 0.258422,-0.105729 0.258422,-0.258421 V 3.2613091 c 0,-0.140961 -0.11747,-0.258421 -0.258422,-0.258421 H 20.23852 c -0.140961,0 -0.258421,0.117469 -0.258421,0.258421 v 3.594398 c -0.469855,-0.411123 -1.068924,-0.669546 -1.738469,-0.669546 -1.49179,0 -2.701669,1.245118 -2.654683,2.748657 0.03523,1.3743289 1.162893,2.5019829 2.525474,2.5724629 z m 0.129202,-4.3931549 c 0.963205,0 1.738467,0.775263 1.738467,1.738468 0,0.963204 -0.775262,1.7384679 -1.738467,1.7384679 -0.963205,0 -1.738467,-0.7752629 -1.738467,-1.7384679 0,-0.963205 0.775262,-1.738468 1.738467,-1.738468 z m 6.36654,4.3931549 c 0.716532,0.03523 1.374329,-0.223181 1.867679,-0.657799 v 0.64605 c 0,1.104163 -0.869234,2.055621 -1.98514,2.055621 -0.375887,0 -0.728278,-0.10573 -1.04543,-0.293659 -0.09397,-0.07046 -0.23493,-0.03523 -0.305407,0.05873 l -0.270166,0.352392 c -0.09397,0.105718 -0.05873,0.270167 0.05873,0.340645 0.469856,0.305408 0.998441,0.458111 1.56227,0.458111 1.574017,0 2.854375,-1.268611 2.90136,-2.830881 v 0 -5.2858829 c 0,-0.129201 -0.105718,-0.234926 -0.234929,-0.234926 -0.375883,0 -0.681291,0.305406 -0.681291,0.68129 v 0.05874 c -0.469851,-0.411125 -1.068918,-0.669545 -1.738462,-0.669545 -1.491794,0 -2.701672,1.245119 -2.654686,2.748655 0.03523,1.3743289 1.162892,2.5019829 2.525475,2.5724619 z m 0.129202,-4.3931549 c 0.963205,0 1.738466,0.775263 1.738466,1.738468 0,0.963204 -0.775261,1.7384679 -1.738466,1.7384679 -0.963205,0 -1.738468,-0.7752629 -1.738468,-1.7384679 0,-0.963205 0.775263,-1.738468 1.738468,-1.738468 z m 4.111234,2.9248539 c 0.246674,0.493349 0.622561,0.892727 1.115909,1.162893 0.399377,0.211437 0.833994,0.3289 1.268611,0.3289 0.258421,0 0.505095,-0.03523 0.763515,-0.105718 0.599067,-0.187942 1.115908,-0.563826 1.456554,-1.080668 0.07046,-0.105718 0.03523,-0.258421 -0.08223,-0.317155 L 32.959835,9.8040451 c -0.09397,-0.05874 -0.223182,-0.03523 -0.281913,0.05873 -0.23493,0.3288989 -0.552082,0.5638269 -0.939713,0.6812909 -0.446362,0.129202 -0.927966,0.07046 -1.339089,-0.152701 -0.187943,-0.10573 -0.36414,-0.246674 -0.493348,-0.4228709 -0.08223,-0.08223 -0.03523,-0.223181 0.08223,-0.25842 l 3.711861,-1.092416 c 0.11747,-0.03523 0.176199,-0.140961 0.164441,-0.258421 -0.01188,-0.08223 -0.03523,-0.164457 -0.05873,-0.246674 -0.08223,-0.246674 -0.18794,-0.481602 -0.317151,-0.704784 -0.246674,-0.364139 -0.575573,-0.681291 -0.963204,-0.892728 -0.634308,-0.340645 -1.350836,-0.422869 -2.032128,-0.211433 -0.681292,0.199688 -1.256864,0.646052 -1.597511,1.280357 -0.340644,0.622559 -0.411123,1.339089 -0.211434,2.032127 z m 0.857488,-2.0203799 c 0.223182,-0.411123 0.599066,-0.704784 1.045429,-0.833995 0.164457,-0.04699 0.328901,-0.07046 0.493348,-0.07046 0.293662,0 0.575575,0.07046 0.833996,0.211435 0.270168,0.140961 0.493349,0.364138 0.657798,0.62256 l -3.007078,0.88098 c -0.117469,0.03523 -0.234927,-0.07046 -0.223181,-0.187943 0.0235,-0.22318 0.09397,-0.422869 0.199688,-0.622557 z"
       id="text9"
       style="font-size:6.47395px;font-family:'George Rounded';-inkscape-font-specification:'George Rounded';fill:#275c88;stroke:#275c88;stroke-width:0.231228"
       aria-label="nudge" />
  </g>
</svg>
